# xmcd
#
# Track frame offsets: 
#        150
#        17760
#        28133
#        41880
#        55171
#        73581
#        84371
#        97761
#        112411
#        124290
#        138869
#        152118
#        169342
#        184262
#        200603
#        215554
#        230427
#        243657
#        257790
#        272174
#
# Disc length: 3875 seconds
#
# Revision: 0
# Processed by: cddbd v1.5.2PL0 Copyright (c) Steve Scherf et al.
# Submitted via: ExactAudioCopy v0.99pb4
#
DISCID=2d0f2114
DTITLE=Кравкль Евгений - Ретро сувенир 1
DYEAR=2010
DGENRE=Chanson
TTITLE0=Талисман
TTITLE1=Старый клён
TTITLE2=Загадай желанье
TTITLE3=Аист
TTITLE4=Падает снег
TTITLE5=По Ангаре
TTITLE6=Ты не печалься
TTITLE7=Старый причал
TTITLE8=Как тебя зовут?
TTITLE9=Главное, ребята
TTITLE10=Бирюсинка
TTITLE11=Возможно
TTITLE12=Я работаю волшебником
TTITLE13=Журавлёнок
TTITLE14=Спустя три года
TTITLE15=Русское поле
TTITLE16=Царевна Несмеяна
TTITLE17=Мальчишки
TTITLE18=Песня о рыбаке
TTITLE19=Песня остаётся с человеком
EXTD=
EXTT0=
EXTT1=
EXTT2=
EXTT3=
EXTT4=
EXTT5=
EXTT6=
EXTT7=
EXTT8=
EXTT9=
EXTT10=
EXTT11=
EXTT12=
EXTT13=
EXTT14=
EXTT15=
EXTT16=
EXTT17=
EXTT18=
EXTT19=
PLAYORDER=
